<svg width="752" height="753" viewBox="0 0 752 753" fill="none" xmlns="http://www.w3.org/2000/svg">
<path d="M0 150.397V45.1814C0.043707 33.212 4.81603 21.7453 13.2764 13.2816C21.7367 4.81793 33.1989 0.0437242 45.1635 0L706.837 0C718.801 0.0437242 730.263 4.81793 738.724 13.2816C747.184 21.7453 751.956 33.212 752 45.1814V150.397H601.662V307.018H451.324V150.397H300.676V601.589H451.013V451.191H601.351V601.589H751.689V707.136C751.645 719.106 746.873 730.572 738.413 739.036C729.952 747.5 718.49 752.274 706.525 752.318C706.525 752.318 461.226 752.299 457.214 752.318C453.201 752.336 445.5 752.318 445.5 752.318C445.5 752.318 366.091 752.628 314.5 752.318C312.938 752.308 310.5 752.297 310.5 752.297H305H302.5H299.5C299.5 752.297 295.094 752.313 293.086 752.297H44.8318C32.9366 752.129 21.5808 747.305 13.1998 738.858C4.81889 730.412 0.0801858 719.016 0 707.116L0 601.921H150.338V150.397H0Z" fill="#1C1C1C"/>
</svg>
